<svg viewBox="0 0 49 49" xmlns="http://www.w3.org/2000/svg" xmlns:xlink="http://www.w3.org/1999/xlink" id="pictogram" overflow="hidden"><defs></defs><rect x="4.5" y="4.5" width="10" height="10" stroke="#111212" stroke-linecap="round" stroke-linejoin="round" fill="none"/><path d="M26.5 16.5 26.5 40.5 18.5 40.5 18.5 9.5 34.5 9.5 34.5 4.5 41.5 4.5 41.5 16.5 26.5 16.5Z" stroke="#111212" stroke-linecap="round" stroke-linejoin="round" fill="none"/><rect x="26.5" y="21.5" width="5" height="4" stroke="#111212" stroke-linecap="round" stroke-linejoin="round" fill="none"/><rect x="31.5" y="20.5" width="13" height="6" stroke="#111212" stroke-linecap="round" stroke-linejoin="round" fill="none"/><rect x="31.5" y="30.5" width="9" height="7" stroke="#111212" stroke-linecap="round" stroke-linejoin="round" fill="none"/><line x1="34.5" y1="26.5" x2="34.5" y2="30.5" stroke="#111212" stroke-linecap="round" stroke-linejoin="round" fill="none"/><line x1="37.5" y1="26.5" x2="37.5" y2="30.5" stroke="#111212" stroke-linecap="round" stroke-linejoin="round" fill="none"/><path d="M33.5 37.5 32.5 40.5 32.5 44.5" stroke="#111212" stroke-linecap="round" stroke-linejoin="round" fill="none"/><line x1="14.5" y1="21.5" x2="18.5" y2="21.5" stroke="#111212" stroke-linecap="round" stroke-linejoin="round" fill="none"/><line x1="14.5" y1="25.5" x2="18.5" y2="25.5" stroke="#111212" stroke-linecap="round" stroke-linejoin="round" fill="none"/><line x1="14.5" y1="34.5" x2="18.5" y2="34.5" stroke="#111212" stroke-linecap="round" stroke-linejoin="round" fill="none"/><line x1="14.5" y1="38.5" x2="18.5" y2="38.5" stroke="#111212" stroke-linecap="round" stroke-linejoin="round" fill="none"/><line x1="6.5" y1="14.5" x2="6.5" y2="19.5" stroke="#111212" stroke-linecap="round" stroke-linejoin="round" fill="none"/><line x1="12.5" y1="14.5" x2="12.5" y2="19.5" stroke="#111212" stroke-linecap="round" stroke-linejoin="round" fill="none"/><line x1="9.5" y1="28.5" x2="9.5" y2="31.5" stroke="#111212" stroke-linecap="round" stroke-linejoin="round" fill="none"/><path d="M9.5 41.5 9.5 44.5 39.5 44.5 39.5 42.5 39.5 40.5 38.5 37.5" stroke="#111212" stroke-linecap="round" stroke-linejoin="round" fill="none"/><line x1="22.5" y1="40.5" x2="22.5" y2="44.5" stroke="#111212" stroke-linecap="round" stroke-linejoin="round" fill="none"/><circle cx="9.5" cy="23.5" r="5" stroke="#FF0026" stroke-linecap="round" stroke-linejoin="round" fill="none"/><circle cx="9.5" cy="36.5" r="5" stroke="#FF0026" stroke-linecap="round" stroke-linejoin="round" fill="none"/></svg>